<svg width="165" height="37" viewBox="0 0 165 37" fill="none" xmlns="http://www.w3.org/2000/svg">
<path fill-rule="evenodd" clip-rule="evenodd" d="M12.58 21.4193L11.785 16.0343L7.1875 11.2043L6.4375 9.7793C6.34 9.6068 6.3925 9.56929 6.535 9.72679L7.7575 11.1593L12.4 15.6593L13.6075 20.4743L12.58 21.4193ZM21.415 21.4193L22.21 16.0343L26.8075 11.2043L27.595 9.7793C27.6925 9.6068 27.64 9.56929 27.4975 9.72679L26.3125 11.1593L21.67 15.6593L20.4625 20.4743L21.415 21.4193ZM16.9975 11.4218L33.4975 0.846794L30.2725 0.404297L22.315 3.68179L17.065 1.61929L11.77 3.68179L3.82 0.404297L0.594999 0.846794L16.9975 11.4218ZM7.03 22.8893C6.7375 21.7718 7.315 21.9893 7.8775 22.5893C8.68508 23.5074 9.28386 24.5898 9.6325 25.7618C9.865 26.8193 10.135 30.1718 10.45 31.2068C12.3408 33.2168 14.3982 35.0633 16.6 36.7268L16.495 24.9218L12.9925 21.8018L13.7875 21.3593H20.2075L21.0025 21.8018L17.5 24.9218L17.395 36.7193C19.5977 35.054 21.6573 33.2076 23.5525 31.1993C23.86 30.1643 24.13 26.8118 24.3625 25.7543C24.7107 24.5805 25.3123 23.4975 26.125 22.5818C26.68 21.9818 27.2575 21.7643 26.965 22.8818C26.6725 23.9993 26.38 24.9968 26.0275 26.0318C27.3888 24.3238 28.6127 22.5106 29.6875 20.6093C32.2 14.4579 33.5968 7.90807 33.8125 1.26679L29.68 4.1543C29.56 6.1843 29.395 8.21181 29.185 10.2368C29.0379 11.6655 28.4449 13.0115 27.49 14.0843C26.6425 14.8343 26.1775 14.2193 26.1325 13.2218L27.415 11.3018L28.0675 9.58429C28.405 8.63929 28.54 8.4218 27.43 9.1718L26.3125 9.9218L26.425 6.4043L17.62 12.4493C17.62 15.2693 17.6025 18.0893 17.5675 20.9093H16.4875C16.4875 18.0893 16.47 15.2693 16.435 12.4493L7.63 6.4043L7.7425 9.9218L6.6325 9.1718C5.5225 8.4218 5.6575 8.63929 5.995 9.58429L6.6475 11.3018L7.93 13.2218C7.885 14.2193 7.42 14.8493 6.5725 14.0843C5.61758 13.0115 5.02456 11.6655 4.8775 10.2368C4.6675 8.21181 4.5025 6.1843 4.3825 4.1543L0.25 1.26679C0.454617 7.90325 1.83869 14.4503 4.3375 20.6018C5.41234 22.5031 6.63617 24.3163 7.9975 26.0243C7.645 24.9893 7.3375 23.9393 7.06 22.8743" fill="white"/>
<path fill-rule="evenodd" clip-rule="evenodd" d="M139.697 17.1067L140.065 15.7193C140.093 15.5476 140.187 15.3938 140.327 15.2913C140.468 15.1888 140.643 15.1458 140.815 15.1718H149.515L149.027 13.6718C148.948 13.3987 148.815 13.1439 148.637 12.9218C148.468 12.7727 148.268 12.6636 148.051 12.6026C147.835 12.5416 147.607 12.5302 147.385 12.5693H138.812C138.09 12.5081 137.364 12.6347 136.705 12.9367C136.442 13.0876 136.22 13.3015 136.06 13.5593C135.811 13.9921 135.629 14.4598 135.52 14.9468L133.727 21.6968C133.232 23.6543 134.057 24.5842 135.977 24.6143H144.812C145.025 24.6255 145.238 24.6255 145.45 24.6143C145.756 24.5744 146.048 24.4625 146.302 24.2878C146.556 24.113 146.765 23.8805 146.912 23.6093L148.037 21.9592H139.15C138.602 21.9592 138.49 21.6742 138.602 21.2617L138.977 19.8443H146.237L146.987 17.1443L139.697 17.1067ZM94.2474 21.1718C94.1349 21.5918 94.2474 21.8768 94.8024 21.8768H102.917L101.8 23.5268C101.65 23.8032 101.435 24.0391 101.174 24.2141C100.912 24.3892 100.613 24.4982 100.3 24.5318C100.085 24.5465 99.8696 24.5465 99.6549 24.5318H91.6299C89.6874 24.5318 88.8549 23.5793 89.3799 21.6218L91.1724 14.8718C91.2785 14.3838 91.4608 13.9156 91.7124 13.4843C91.8722 13.2243 92.0938 13.0079 92.3574 12.8543C93.0181 12.5577 93.7432 12.4338 94.4649 12.4942H102.325C102.547 12.4562 102.775 12.4688 102.992 12.5311C103.209 12.5935 103.409 12.7039 103.577 12.8543C103.757 13.0755 103.889 13.3306 103.967 13.6043L104.455 15.1043H96.4749C96.303 15.0783 96.1278 15.1213 95.9873 15.2238C95.8469 15.3263 95.7526 15.4801 95.7249 15.6518C95.4774 16.5818 95.6349 15.9742 94.2249 21.1417M86.1324 19.2667C87.8424 18.5617 89.4024 17.5643 89.5149 15.6743C89.5363 15.2637 89.4636 14.8536 89.3024 14.4754C89.1413 14.0971 88.8958 13.7607 88.5849 13.4918C87.4899 12.5318 85.7424 12.4568 84.3249 12.4568H75.8124L72.6174 24.5167H77.3799L79.8999 15.1718H83.6874C84.0504 15.1364 84.4162 15.2013 84.7449 15.3593C84.8436 15.4259 84.925 15.5151 84.9824 15.6194C85.0397 15.7237 85.0715 15.8402 85.0749 15.9592C85.0749 16.7092 84.3249 17.1667 83.7099 17.4592C82.356 18.035 80.9714 18.5357 79.5624 18.9592L83.4999 24.6143H88.6899L85.2699 19.6718C85.5624 19.5668 85.8549 19.4393 86.1549 19.3193M47.9799 17.0693L49.1949 12.5093H44.4024L41.1999 24.5768H45.9774L47.1924 20.0167H51.7449L50.5374 24.5693H55.3074L58.5324 12.5093H55.0524C54.8012 12.5051 54.5525 12.5583 54.325 12.6649C54.0975 12.7715 53.8974 12.9286 53.7399 13.1242C53.5259 13.4396 53.3756 13.7937 53.2974 14.1668L52.5474 17.0543L47.9799 17.0693ZM108.812 20.4218L110.92 12.5243H107.455C107.205 12.5203 106.956 12.5729 106.729 12.6781C106.502 12.7832 106.301 12.9383 106.142 13.1318C105.928 13.4497 105.778 13.8064 105.7 14.1817L104.312 19.5293L103.78 21.5468C103.435 22.8518 103.66 23.6468 104.222 24.0893C104.809 24.4694 105.506 24.6436 106.202 24.5842H113.125C113.976 24.6248 114.827 24.5234 115.645 24.2842C116.957 23.7967 117.43 22.7843 117.752 21.5318L120.16 12.5318H115.337L113.155 20.7293C112.937 21.5618 112.772 21.9142 111.812 21.9142H109.217C108.715 21.9142 108.467 21.7267 108.625 21.1642L108.812 20.4218ZM124.652 20.4218L124.457 21.1718C124.3 21.7493 124.547 21.9218 125.042 21.9218H132.94L131.822 23.5718C131.675 23.8423 131.465 24.0742 131.211 24.2487C130.957 24.4233 130.665 24.5357 130.36 24.5768C130.145 24.5881 129.93 24.5881 129.715 24.5768H122.012C121.316 24.6305 120.621 24.4568 120.032 24.0818C119.47 23.6318 119.282 22.8443 119.59 21.5318L120.13 19.5217C120.605 17.7367 121.075 15.9567 121.54 14.1817C121.619 13.8055 121.772 13.4487 121.99 13.1318C122.147 12.9376 122.346 12.782 122.572 12.6767C122.798 12.5714 123.045 12.5192 123.295 12.5243H126.812L124.652 20.4218ZM155.012 15.6143L154.735 16.6493C154.652 16.9493 154.832 17.1143 155.132 17.1143H160.382C160.733 17.1037 161.083 17.1364 161.425 17.2118C161.642 17.2577 161.848 17.3481 162.028 17.4771C162.209 17.6062 162.361 17.7712 162.475 17.9618C162.622 18.2508 162.709 18.5665 162.731 18.89C162.753 19.2135 162.709 19.5381 162.602 19.8443L161.995 22.0943C161.515 23.9018 160.712 24.6143 158.83 24.6143H148.21L148.96 21.9367H156.587C157.15 21.9367 157.337 21.8392 157.487 21.2842L157.742 20.3242C157.766 20.2658 157.774 20.2024 157.766 20.14C157.757 20.0776 157.733 20.0183 157.696 19.9679C157.658 19.9175 157.608 19.8775 157.551 19.852C157.493 19.8264 157.43 19.816 157.367 19.8218H151.915C150.272 19.8218 149.425 18.8993 149.845 17.2343L150.46 14.9317C150.566 14.3903 150.789 13.8785 151.112 13.4317C151.75 12.6817 152.702 12.5693 154.06 12.5693H164.162L163.465 15.2018H155.65C155.275 15.2018 155.125 15.2692 155.027 15.6367M63.9999 17.1367H71.2524L70.5399 19.8368H63.2799L62.8974 21.2542C62.7924 21.6742 62.8974 21.9518 63.4524 21.9518H72.3174L71.1924 23.6017C71.0419 23.8778 70.8269 24.1133 70.5657 24.2883C70.3045 24.4633 70.0049 24.5726 69.6924 24.6067C69.48 24.618 69.2672 24.618 69.0549 24.6067H60.2874C58.3449 24.6067 57.5124 23.6468 58.0374 21.6893L59.8374 14.9393C59.9396 14.4489 60.1193 13.978 60.3699 13.5442C60.5308 13.2845 60.7554 13.0703 61.0224 12.9218C61.6788 12.6197 62.4024 12.4931 63.1224 12.5543H71.7249C71.9473 12.5189 72.1747 12.5328 72.3912 12.595C72.6076 12.6572 72.8077 12.7662 72.9774 12.9142C73.1605 13.1329 73.2936 13.3888 73.3674 13.6642L73.8549 15.1642H65.1549C64.983 15.1383 64.8078 15.1813 64.6673 15.2838C64.5269 15.3863 64.4326 15.5401 64.4049 15.7118L63.9999 17.1367Z" fill="white"/>
</svg>
